# File created by Blade
# Date/Time:  Wed Jan 21 16:02:01 2015
# Frame Rate: 120.000 fps
#------------------------------------------------------
:FULLY-SPECIFIED
:DEGREES
1076
root 19.381339 32.668894 -17.824521 -171.484651 3.367131 -178.416068
Spine -19.470219 6.554147 0.741370
Head 11.126792 -7.344527 -5.754124
LeftShoulder -12.274900 -29.005579 -3.839704
LeftArm -41.920484 -8.711591 -49.508244
LeftForeArm 1.017004 -0.000000 8.200358
LeftHand -1.741851 -0.000000 2.660145
LeftHandThumb1 -26.253704 0.000000 33.147579
RightShoulder -10.593967 17.119122 -45.011672
RightArm 45.810269 47.815072 -6.646613
RightForeArm -41.555157 0.000000 8.985767
RightHand -0.568953 -0.000000 -17.787121
RightHandThumb1 -24.326973 -0.000000 -32.862282
LeftUpLeg 12.668591 1.270476 -18.072551
LeftLeg -2.028759 -0.000000 0.000000
LeftFoot -33.229007 19.094677 -14.586056
LeftToeBase 17.736724 -0.000000 -0.000000
RightUpLeg -18.976016 10.707330 21.608444
RightLeg -3.241504 -0.000000 0.000000
RightFoot -1.453766 -32.125656 -3.240540
RightToeBase 20.741636 -0.000000 -0.000000
1077
root 19.378476 32.669066 -17.819394 -171.484539 3.378975 -178.412008
Spine -19.441137 6.429444 0.794057
Head 11.117313 -7.303409 -5.757843
LeftShoulder -12.216327 -28.908083 -3.874722
LeftArm -41.908129 -8.841845 -49.483331
LeftForeArm 1.129405 0.000000 8.172909
LeftHand -1.791446 -0.000000 2.668156
LeftHandThumb1 -26.253704 0.000000 33.147579
RightShoulder -10.586614 17.048069 -45.005992
RightArm 45.785239 47.854534 -6.668340
RightForeArm -41.470936 -0.000000 9.003727
RightHand -0.563076 -0.000000 -17.820818
RightHandThumb1 -24.326973 -0.000000 -32.862282
LeftUpLeg 12.649333 1.293437 -18.073586
LeftLeg -2.010924 -0.000000 0.000000
LeftFoot -33.247432 19.080765 -14.606315
LeftToeBase 17.700894 -0.000000 -0.000000
RightUpLeg -18.995585 10.719990 21.604003
RightLeg -3.214437 -0.000000 0.000000
RightFoot -1.465493 -32.126959 -3.185072
RightToeBase 20.629275 -0.000000 -0.000000
1078
root 19.375431 32.668491 -17.815188 -171.484994 3.403677 -178.401950
Spine -19.409375 6.278072 0.867145
Head 11.104281 -7.221457 -5.762591
LeftShoulder -12.203496 -28.846360 -3.875521
LeftArm -41.958343 -8.991267 -49.416424
LeftForeArm 1.258650 0.000000 8.193552
LeftHand -1.809423 -0.000000 2.605320
LeftHandThumb1 -26.253704 0.000000 33.147579
RightShoulder -10.548545 17.061762 -45.010996
RightArm 45.761609 47.870013 -6.662185
RightForeArm -41.610699 -0.000000 9.074533
RightHand -0.628481 -0.000000 -17.706791
RightHandThumb1 -24.326973 -0.000000 -32.862282
LeftUpLeg 12.632017 1.326501 -18.071609
LeftLeg -1.999403 -0.000000 0.000000
LeftFoot -33.281178 19.071148 -14.621371
LeftToeBase 17.753861 -0.000000 -0.000000
RightUpLeg -19.007680 10.752478 21.601605
RightLeg -3.192325 -0.000000 0.000000
RightFoot -1.461973 -32.125102 -3.178954
RightToeBase 20.658508 -0.000000 -0.000000
1079
root 19.372248 32.667967 -17.810442 -171.495333 3.437784 -178.399618
Spine -19.367275 6.145124 0.934200
Head 11.103013 -7.144804 -5.794103
LeftShoulder -12.123701 -28.757722 -3.942819
LeftArm -41.963957 -9.029640 -49.438018
LeftForeArm 1.234408 -0.000000 8.176826
LeftHand -1.798129 -0.000000 2.658118
LeftHandThumb1 -26.253704 0.000000 33.147579
RightShoulder -10.643098 17.541618 -45.180940
RightArm 46.058511 47.421052 -6.303593
RightForeArm -41.752251 -0.000000 9.120408
RightHand -0.673342 -0.000000 -17.747417
RightHandThumb1 -24.326973 -0.000000 -32.862282
LeftUpLeg 12.617705 1.366219 -18.079074
LeftLeg -1.978285 -0.000000 0.000000
LeftFoot -33.312243 19.072705 -14.637893
LeftToeBase 17.818433 -0.000000 -0.000000
RightUpLeg -19.013170 10.796270 21.589500
RightLeg -3.166115 -0.000000 0.000000
RightFoot -1.474427 -32.141281 -3.163690
RightToeBase 20.721420 -0.000000 -0.000000
1080
root 19.369328 32.667104 -17.804833 -171.498773 3.473099 -178.389920
Spine -19.326806 6.006458 1.002854
Head 11.088100 -7.102089 -5.797545
LeftShoulder -12.071565 -28.612348 -3.978578
LeftArm -41.899851 -9.292638 -49.347804
LeftForeArm 1.504032 -0.000000 8.080070
LeftHand -1.762728 -0.000000 2.696408
LeftHandThumb1 -26.253704 0.000000 33.147579
RightShoulder -10.681540 17.786731 -45.251757
RightArm 46.195180 47.205486 -6.138285
RightForeArm -41.871565 -0.000000 9.171350
RightHand -0.676082 -0.000000 -17.735867
RightHandThumb1 -24.326973 -0.000000 -32.862282
LeftUpLeg 12.589883 1.420302 -18.079949
LeftLeg -1.950960 -0.000000 0.000000
LeftFoot -33.339684 19.064562 -14.662856
LeftToeBase 17.753839 -0.000000 -0.000000
RightUpLeg -19.019261 10.839954 21.586660
RightLeg -3.147629 -0.000000 0.000000
RightFoot -1.468716 -32.153906 -3.156566
RightToeBase 20.724853 -0.000000 -0.000000
1081
root 19.366137 32.665890 -17.800054 -171.505857 3.521310 -178.385418
Spine -19.275687 5.877276 1.061022
Head 11.074682 -7.014706 -5.794895
LeftShoulder -12.003848 -28.464516 -4.026684
LeftArm -41.830315 -9.403791 -49.377875
LeftForeArm 1.610238 -0.000000 8.036456
LeftHand -1.724163 -0.000000 2.690439
LeftHandThumb1 -26.253704 0.000000 33.147579
RightShoulder -10.721542 17.781502 -45.257548
RightArm 46.247985 47.178219 -6.135953
RightForeArm -41.868131 0.000000 9.149449
RightHand -0.715957 -0.000000 -17.756574
RightHandThumb1 -24.326973 -0.000000 -32.862282
LeftUpLeg 12.567361 1.473481 -18.087230
LeftLeg -1.925380 -0.000000 0.000000
LeftFoot -33.377246 19.038108 -14.683379
LeftToeBase 17.812311 -0.000000 -0.000000
RightUpLeg -19.018510 10.871794 21.585919
RightLeg -3.127357 -0.000000 0.000000
RightFoot -1.480981 -32.146809 -3.137286
RightToeBase 20.789944 -0.000000 -0.000000
1082
root 19.362870 32.664737 -17.793955 -171.511188 3.563310 -178.382574
Spine -19.227929 5.703956 1.130393
Head 11.059218 -6.943819 -5.792900
LeftShoulder -11.920021 -28.393350 -4.080138
LeftArm -41.870170 -9.405331 -49.425378
LeftForeArm 1.589122 -0.000000 8.041801
LeftHand -1.696523 -0.000000 2.690831
LeftHandThumb1 -26.253704 0.000000 33.147579
RightShoulder -10.738958 17.716647 -45.253290
RightArm 46.311188 47.253920 -6.063770
RightForeArm -41.878705 -0.000000 9.180157
RightHand -0.710541 0.000000 -17.799283
RightHandThumb1 -24.326973 -0.000000 -32.862282
LeftUpLeg 12.536558 1.514362 -18.097974
LeftLeg -1.892264 -0.000000 0.000000
LeftFoot -33.412167 19.048513 -14.695857
LeftToeBase 17.803892 -0.000000 -0.000000
RightUpLeg -19.019183 10.905882 21.580614
RightLeg -3.117114 -0.000000 0.000000
RightFoot -1.475699 -32.144994 -3.141113
RightToeBase 20.763048 -0.000000 -0.000000
